<mxfile host="app.diagrams.net" agent="Mozilla/5.0 (Windows NT 10.0; Win64; x64) AppleWebKit/537.36 (KHTML, like Gecko) Chrome/129.0.0.0 Safari/537.36 Edg/129.0.0.0" version="24.7.17">
  <diagram name="Page-1" id="74e2e168-ea6b-b213-b513-2b3c1d86103e">
    <mxGraphModel dx="1554" dy="853" grid="1" gridSize="10" guides="1" tooltips="1" connect="1" arrows="1" fold="1" page="1" pageScale="1" pageWidth="1100" pageHeight="850" background="none" math="0" shadow="0">
      <root>
        <mxCell id="0" />
        <mxCell id="1" parent="0" />
        <mxCell id="I5FGjXJJP3mcsBWvXoU7-32" style="edgeStyle=orthogonalEdgeStyle;rounded=0;orthogonalLoop=1;jettySize=auto;html=1;exitX=1;exitY=0.25;exitDx=0;exitDy=0;entryX=0;entryY=0.25;entryDx=0;entryDy=0;" edge="1" parent="1" source="9LoYyTasiTcRK8hntE4s-2" target="9LoYyTasiTcRK8hntE4s-3">
          <mxGeometry relative="1" as="geometry" />
        </mxCell>
        <mxCell id="9LoYyTasiTcRK8hntE4s-2" value="用户" style="whiteSpace=wrap;html=1;fontStyle=1" parent="1" vertex="1">
          <mxGeometry x="40" y="40" width="80" height="160" as="geometry" />
        </mxCell>
        <mxCell id="I5FGjXJJP3mcsBWvXoU7-33" style="edgeStyle=orthogonalEdgeStyle;rounded=0;orthogonalLoop=1;jettySize=auto;html=1;exitX=0;exitY=0.75;exitDx=0;exitDy=0;entryX=1;entryY=0.75;entryDx=0;entryDy=0;" edge="1" parent="1" source="9LoYyTasiTcRK8hntE4s-3" target="9LoYyTasiTcRK8hntE4s-2">
          <mxGeometry relative="1" as="geometry" />
        </mxCell>
        <mxCell id="I5FGjXJJP3mcsBWvXoU7-34" style="edgeStyle=orthogonalEdgeStyle;rounded=0;orthogonalLoop=1;jettySize=auto;html=1;exitX=1;exitY=0.25;exitDx=0;exitDy=0;entryX=0;entryY=0.25;entryDx=0;entryDy=0;" edge="1" parent="1" source="9LoYyTasiTcRK8hntE4s-3" target="9LoYyTasiTcRK8hntE4s-4">
          <mxGeometry relative="1" as="geometry" />
        </mxCell>
        <mxCell id="9LoYyTasiTcRK8hntE4s-3" value="前端" style="whiteSpace=wrap;html=1;fontStyle=1" parent="1" vertex="1">
          <mxGeometry x="320" y="40" width="80" height="160" as="geometry" />
        </mxCell>
        <mxCell id="I5FGjXJJP3mcsBWvXoU7-35" style="edgeStyle=orthogonalEdgeStyle;rounded=0;orthogonalLoop=1;jettySize=auto;html=1;exitX=0;exitY=0.75;exitDx=0;exitDy=0;entryX=1;entryY=0.75;entryDx=0;entryDy=0;" edge="1" parent="1" source="9LoYyTasiTcRK8hntE4s-4" target="9LoYyTasiTcRK8hntE4s-3">
          <mxGeometry relative="1" as="geometry" />
        </mxCell>
        <mxCell id="9LoYyTasiTcRK8hntE4s-4" value="后端" style="whiteSpace=wrap;html=1;fontStyle=1" parent="1" vertex="1">
          <mxGeometry x="620" y="40" width="80" height="160" as="geometry" />
        </mxCell>
        <mxCell id="9LoYyTasiTcRK8hntE4s-5" value="用户操作出发请求" style="text;whiteSpace=wrap;html=1;" parent="1" vertex="1">
          <mxGeometry x="140" y="50" width="180" height="50" as="geometry" />
        </mxCell>
        <mxCell id="9LoYyTasiTcRK8hntE4s-7" value="&lt;span style=&quot;color: rgb(0, 0, 0); font-family: Helvetica; font-size: 12px; font-style: normal; font-variant-ligatures: normal; font-variant-caps: normal; font-weight: 400; letter-spacing: normal; orphans: 2; text-align: left; text-indent: 0px; text-transform: none; widows: 2; word-spacing: 0px; -webkit-text-stroke-width: 0px; white-space: normal; background-color: rgb(251, 251, 251); text-decoration-thickness: initial; text-decoration-style: initial; text-decoration-color: initial; display: inline !important; float: none;&quot;&gt;发送请求进行交互&lt;/span&gt;" style="text;whiteSpace=wrap;html=1;" parent="1" vertex="1">
          <mxGeometry x="415" y="50" width="130" height="40" as="geometry" />
        </mxCell>
        <mxCell id="9LoYyTasiTcRK8hntE4s-8" value="更新界面显示结果或触发下载" style="text;whiteSpace=wrap;html=1;" parent="1" vertex="1">
          <mxGeometry x="130" y="170" width="160" height="40" as="geometry" />
        </mxCell>
        <mxCell id="9LoYyTasiTcRK8hntE4s-10" value="返回JSON响应或者文件流" style="text;whiteSpace=wrap;html=1;" parent="1" vertex="1">
          <mxGeometry x="420" y="160" width="150" height="40" as="geometry" />
        </mxCell>
        <mxCell id="I5FGjXJJP3mcsBWvXoU7-29" style="edgeStyle=orthogonalEdgeStyle;rounded=0;orthogonalLoop=1;jettySize=auto;html=1;exitX=1;exitY=0.25;exitDx=0;exitDy=0;entryX=0;entryY=0.25;entryDx=0;entryDy=0;" edge="1" parent="1" source="I5FGjXJJP3mcsBWvXoU7-11" target="I5FGjXJJP3mcsBWvXoU7-13">
          <mxGeometry relative="1" as="geometry" />
        </mxCell>
        <mxCell id="I5FGjXJJP3mcsBWvXoU7-11" value="&#xa;&lt;span style=&quot;color: rgb(0, 0, 0); font-family: Helvetica; font-size: 12px; font-style: normal; font-variant-ligatures: normal; font-variant-caps: normal; font-weight: 700; letter-spacing: normal; orphans: 2; text-align: center; text-indent: 0px; text-transform: none; widows: 2; word-spacing: 0px; -webkit-text-stroke-width: 0px; white-space: normal; background-color: rgb(251, 251, 251); text-decoration-thickness: initial; text-decoration-style: initial; text-decoration-color: initial; display: inline !important; float: none;&quot;&gt;用户&lt;/span&gt;&#xa;&#xa;" style="rounded=0;whiteSpace=wrap;html=1;" vertex="1" parent="1">
          <mxGeometry x="40" y="320" width="80" height="140" as="geometry" />
        </mxCell>
        <mxCell id="I5FGjXJJP3mcsBWvXoU7-25" style="edgeStyle=orthogonalEdgeStyle;rounded=0;orthogonalLoop=1;jettySize=auto;html=1;exitX=0;exitY=0.75;exitDx=0;exitDy=0;entryX=1;entryY=0.75;entryDx=0;entryDy=0;" edge="1" parent="1" source="I5FGjXJJP3mcsBWvXoU7-12" target="I5FGjXJJP3mcsBWvXoU7-13">
          <mxGeometry relative="1" as="geometry" />
        </mxCell>
        <mxCell id="I5FGjXJJP3mcsBWvXoU7-12" value="&lt;span style=&quot;font-weight: 700;&quot;&gt;后端&lt;/span&gt;" style="rounded=0;whiteSpace=wrap;html=1;" vertex="1" parent="1">
          <mxGeometry x="920" y="320" width="80" height="140" as="geometry" />
        </mxCell>
        <mxCell id="I5FGjXJJP3mcsBWvXoU7-20" style="edgeStyle=orthogonalEdgeStyle;rounded=0;orthogonalLoop=1;jettySize=auto;html=1;exitX=1;exitY=0.25;exitDx=0;exitDy=0;entryX=0;entryY=0.25;entryDx=0;entryDy=0;" edge="1" parent="1" source="I5FGjXJJP3mcsBWvXoU7-13" target="I5FGjXJJP3mcsBWvXoU7-12">
          <mxGeometry relative="1" as="geometry" />
        </mxCell>
        <mxCell id="I5FGjXJJP3mcsBWvXoU7-27" style="edgeStyle=orthogonalEdgeStyle;rounded=0;orthogonalLoop=1;jettySize=auto;html=1;exitX=0;exitY=0.75;exitDx=0;exitDy=0;entryX=1;entryY=0.75;entryDx=0;entryDy=0;" edge="1" parent="1" source="I5FGjXJJP3mcsBWvXoU7-13" target="I5FGjXJJP3mcsBWvXoU7-11">
          <mxGeometry relative="1" as="geometry" />
        </mxCell>
        <mxCell id="I5FGjXJJP3mcsBWvXoU7-13" value="&lt;span style=&quot;font-weight: 700;&quot;&gt;前端&lt;/span&gt;" style="rounded=0;whiteSpace=wrap;html=1;" vertex="1" parent="1">
          <mxGeometry x="440" y="320" width="80" height="140" as="geometry" />
        </mxCell>
        <mxCell id="I5FGjXJJP3mcsBWvXoU7-21" value="发送请求到后端：&lt;br&gt;&lt;ul&gt;&lt;li&gt;&lt;strong&gt;请求&lt;/strong&gt;: &lt;code&gt;POST /run_command&lt;/code&gt;&lt;/li&gt;&lt;br&gt;&lt;li&gt;&lt;strong&gt;数据&lt;/strong&gt;: &lt;code&gt;{ &quot;filenames&quot;: [selectedFileName] }&lt;/code&gt;&lt;/li&gt;&lt;/ul&gt;" style="text;whiteSpace=wrap;html=1;" vertex="1" parent="1">
          <mxGeometry x="570" y="270" width="330" height="120" as="geometry" />
        </mxCell>
        <mxCell id="I5FGjXJJP3mcsBWvXoU7-24" value="返回响应：&lt;ul&gt;&lt;li&gt;&lt;strong&gt;响应&lt;/strong&gt;: 包含执行结果&lt;/li&gt;&lt;/ul&gt;" style="text;whiteSpace=wrap;html=1;" vertex="1" parent="1">
          <mxGeometry x="570" y="425" width="410" height="150" as="geometry" />
        </mxCell>
        <mxCell id="I5FGjXJJP3mcsBWvXoU7-26" value="根据响应更新用户界面：&lt;ul&gt;&lt;li&gt;显示成功信息或错误信息。&lt;/li&gt;&lt;/ul&gt;" style="text;whiteSpace=wrap;html=1;" vertex="1" parent="1">
          <mxGeometry x="158" y="430" width="220" height="90" as="geometry" />
        </mxCell>
        <mxCell id="I5FGjXJJP3mcsBWvXoU7-28" value="用户操作：&lt;ul&gt;&lt;li&gt;点击执行&lt;/li&gt;&lt;/ul&gt;" style="text;whiteSpace=wrap;html=1;" vertex="1" parent="1">
          <mxGeometry x="160" y="285" width="220" height="90" as="geometry" />
        </mxCell>
        <UserObject label="&lt;li&gt;接收请求&amp;nbsp; &amp;nbsp; &amp;nbsp; &amp;nbsp; &amp;nbsp; &amp;nbsp; &amp;nbsp; &amp;nbsp; &amp;nbsp; &amp;nbsp; &amp;nbsp; &amp;nbsp; &amp;nbsp; &amp;nbsp; &amp;nbsp; &amp;nbsp; &amp;nbsp; &amp;nbsp; &amp;nbsp; &amp;nbsp; &amp;nbsp; &amp;nbsp; &amp;nbsp; &amp;nbsp; &amp;nbsp; &amp;nbsp; &amp;nbsp; &amp;nbsp; &amp;nbsp; &amp;nbsp; &amp;nbsp; &amp;nbsp; &amp;nbsp; &amp;nbsp; &amp;nbsp; &amp;nbsp; &amp;nbsp; &amp;nbsp; &amp;nbsp; &amp;nbsp; &amp;nbsp; &amp;nbsp; &amp;nbsp; &amp;nbsp; &amp;nbsp; &amp;nbsp; &amp;nbsp; &amp;nbsp; &amp;nbsp; &amp;nbsp; &amp;nbsp; &amp;nbsp; &amp;nbsp; &amp;nbsp; &amp;nbsp;&amp;nbsp;&lt;/li&gt;&lt;li&gt;处理文件名，并构建命令。&amp;nbsp; &amp;nbsp; &amp;nbsp; &amp;nbsp; &amp;nbsp; &amp;nbsp; &amp;nbsp; &amp;nbsp; &amp;nbsp; &amp;nbsp; &amp;nbsp; &amp;nbsp; &amp;nbsp; &amp;nbsp; &amp;nbsp; &amp;nbsp; &amp;nbsp; &amp;nbsp; &amp;nbsp; &amp;nbsp; &amp;nbsp; &amp;nbsp; &amp;nbsp; &amp;nbsp; &amp;nbsp; &amp;nbsp; &amp;nbsp; &amp;nbsp; &amp;nbsp; &amp;nbsp; &amp;nbsp; &amp;nbsp; &amp;nbsp; &amp;nbsp; &amp;nbsp; &amp;nbsp;&amp;nbsp;&lt;/li&gt;&lt;blockquote style=&quot;margin: 0 0 0 40px; border: none; padding: 0px;&quot;&gt;&lt;li&gt;&lt;b&gt;如：python create_bundle.py create_bundle MFG.yaml&lt;/b&gt;&lt;/li&gt;&lt;/blockquote&gt;&lt;span style=&quot;white-space: pre;&quot;&gt;&lt;span style=&quot;white-space: pre;&quot;&gt;&#x9;&lt;/span&gt;&#x9;&lt;/span&gt;&lt;span style=&quot;white-space: pre;&quot;&gt;&#x9;&lt;/span&gt;&lt;span style=&quot;white-space: pre;&quot;&gt;&#x9;&lt;/span&gt;&lt;br&gt;&lt;li&gt;使用 &lt;code&gt;subprocess.run()&lt;/code&gt; 执行命令。&lt;/li&gt;" link="&lt;li&gt;接收请求：&#xa;&lt;ul&gt;&#xa;&lt;li&gt;&lt;strong&gt;动作&lt;/strong&gt;: &lt;code&gt;request.json&lt;/code&gt; 解析数据。&lt;/li&gt;&#xa;&lt;/ul&gt;&#xa;&lt;/li&gt;&#xa;&lt;li&gt;处理文件名，并构建命令。&lt;/li&gt;&#xa;&lt;li&gt;使用 &lt;code&gt;subprocess.run()&lt;/code&gt; 执行命令。&#xa;&lt;ul&gt;&#xa;&lt;li&gt;&lt;strong&gt;输出&lt;/strong&gt;: 捕获标准输出和错误信息。&lt;/li&gt;&lt;/ul&gt;&lt;/li&gt;" id="I5FGjXJJP3mcsBWvXoU7-31">
          <mxCell style="text;whiteSpace=wrap;html=1;" vertex="1" parent="1">
            <mxGeometry x="1010" y="330" width="400" height="230" as="geometry" />
          </mxCell>
        </UserObject>
      </root>
    </mxGraphModel>
  </diagram>
</mxfile>
